<svg width="16" height="16" viewBox="0 0 16 16" fill="currentColor" xmlns="http://www.w3.org/2000/svg">
<path d="M7.33337 1.33337C10.6454 1.33337 13.3334 4.02137 13.3334 7.33337C13.3334 10.6454 10.6454 13.3334 7.33337 13.3334C4.02137 13.3334 1.33337 10.6454 1.33337 7.33337C1.33337 4.02137 4.02137 1.33337 7.33337 1.33337ZM7.33337 12C9.91171 12 12 9.91171 12 7.33337C12 4.75504 9.91171 2.66671 7.33337 2.66671C4.75504 2.66671 2.66671 4.75504 2.66671 7.33337C2.66671 9.91171 4.75504 12 7.33337 12ZM12.9902 12.0474L14.8758 13.933L13.933 14.8758L12.0474 12.9902L12.9902 12.0474Z" fill-opacity="0.45"/>
</svg>
