<svg width="18" height="18" viewBox="0 0 18 18" fill="none" xmlns="http://www.w3.org/2000/svg">
<path d="M14.3694 2.66833C12.477 0.775921 9.39531 0.775921 7.50491 2.66833L2.2616 7.90762C2.22745 7.94177 2.20937 7.98797 2.20937 8.03619C2.20937 8.0844 2.22745 8.13061 2.2616 8.16476L3.0029 8.90605C3.03678 8.93979 3.08265 8.95873 3.13046 8.95873C3.17828 8.95873 3.22415 8.93979 3.25803 8.90605L8.50133 3.66677C9.15223 3.01588 10.0181 2.65829 10.9382 2.65829C11.8583 2.65829 12.7241 3.01588 13.373 3.66677C14.0239 4.31766 14.3815 5.18351 14.3815 6.10159C14.3815 7.02168 14.0239 7.88552 13.373 8.53641L8.02924 13.8782L7.16339 14.744C6.35379 15.5536 5.03794 15.5536 4.22834 14.744C3.8366 14.3523 3.62165 13.8319 3.62165 13.2775C3.62165 12.723 3.8366 12.2027 4.22834 11.811L9.52991 6.51141C9.6645 6.37882 9.84129 6.30449 10.0301 6.30449H10.0321C10.221 6.30449 10.3958 6.37882 10.5283 6.51141C10.6629 6.64601 10.7353 6.8228 10.7353 7.01163C10.7353 7.19847 10.6609 7.37525 10.5283 7.50784L6.19508 11.8371C6.16093 11.8712 6.14285 11.9174 6.14285 11.9657C6.14285 12.0139 6.16093 12.0601 6.19508 12.0942L6.93638 12.8355C6.97026 12.8693 7.01613 12.8882 7.06395 12.8882C7.11176 12.8882 7.15763 12.8693 7.19151 12.8355L11.5228 8.50427C11.9225 8.10449 12.1415 7.57414 12.1415 7.00963C12.1415 6.44512 11.9205 5.91275 11.5228 5.51498C10.6971 4.68931 9.35513 4.69132 8.52946 5.51498L8.01517 6.03128L3.22991 10.8145C2.90512 11.1374 2.64767 11.5216 2.47249 11.9447C2.2973 12.3678 2.20787 12.8215 2.20937 13.2795C2.20937 14.2096 2.57299 15.0835 3.22991 15.7404C3.91093 16.4194 4.8029 16.759 5.69486 16.759C6.58682 16.759 7.47879 16.4194 8.15781 15.7404L14.3694 9.53284C15.2835 8.61677 15.7897 7.39735 15.7897 6.10159C15.7917 4.80382 15.2855 3.5844 14.3694 2.66833Z" fill="currentColor" fill-opacity="0.65"/>
</svg>
