<svg width="12" height="12" viewBox="0 0 12 12" fill="none" xmlns="http://www.w3.org/2000/svg">
<path fill-rule="evenodd" clip-rule="evenodd" d="M9.85529 1.37022C9.85556 1.37022 9.85583 1.37049 9.85636 1.37102L10.629 2.14379C10.6295 2.14419 10.6297 2.14446 10.6298 2.14486C10.6299 2.14512 10.6299 2.1454 10.6298 2.14566C10.6298 2.14607 10.6295 2.14633 10.629 2.14687L6.77587 5.99999L10.629 9.85312C10.6295 9.85365 10.6297 9.85392 10.6298 9.85432C10.6299 9.85463 10.6299 9.85496 10.6298 9.85526C10.6298 9.85553 10.6295 9.8558 10.629 9.85633L9.85623 10.629C9.85583 10.6295 9.85556 10.6296 9.85529 10.6298C9.85499 10.6299 9.85466 10.6299 9.85435 10.6298C9.85395 10.6298 9.85368 10.6295 9.85315 10.629L6.00002 6.77584L2.1469 10.629C2.14636 10.6295 2.1461 10.6296 2.14569 10.6298C2.14539 10.6299 2.14506 10.6299 2.14476 10.6298C2.14449 10.6298 2.14422 10.6295 2.14369 10.629L1.37105 9.8562C1.37052 9.8558 1.37038 9.85553 1.37025 9.85526C1.37015 9.85496 1.37015 9.85463 1.37025 9.85432C1.37025 9.85392 1.37052 9.85365 1.37105 9.85312L5.22418 5.99999L1.37105 2.14687C1.37052 2.14633 1.37038 2.14607 1.37025 2.14566C1.37015 2.14536 1.37015 2.14503 1.37025 2.14473C1.37025 2.14446 1.37052 2.14419 1.37105 2.14366L2.14382 1.37102C2.14422 1.37049 2.14449 1.37035 2.14476 1.37022C2.14506 1.37012 2.14539 1.37012 2.14569 1.37022C2.1461 1.37022 2.14636 1.37049 2.1469 1.37102L6.00002 5.22415L9.85315 1.37102C9.85368 1.37049 9.85395 1.37035 9.85435 1.37022C9.85466 1.37012 9.85499 1.37012 9.85529 1.37022Z" fill="currentColor" />
</svg>
